<svg width="20" height="20" viewBox="0 0 20 20" fill="none" xmlns="http://www.w3.org/2000/svg">
<path fill-rule="evenodd" clip-rule="evenodd" d="M9.99935 1.0415C5.0518 1.0415 1.04102 5.05229 1.04102 9.99984C1.04102 14.9474 5.0518 18.9582 9.99935 18.9582C14.9469 18.9582 18.9577 14.9474 18.9577 9.99984C18.9577 5.05229 14.9469 1.0415 9.99935 1.0415ZM10.8327 6.6665C10.8327 6.20627 10.4596 5.83317 9.99935 5.83317C9.5391 5.83317 9.16602 6.20627 9.16602 6.6665V9.99984C9.16602 10.2208 9.25385 10.4328 9.4101 10.5891L11.0768 12.2558C11.4022 12.5812 11.9298 12.5812 12.2553 12.2558C12.5807 11.9303 12.5807 11.4027 12.2553 11.0773L10.8327 9.65467V6.6665Z" fill="#020409"/>
</svg>
