<svg width="24" height="24" viewBox="0 0 24 24" fill="none" xmlns="http://www.w3.org/2000/svg">
  <path d="M4 2C2.89543 2 2 2.89543 2 4V20C2 21.1046 2.89543 22 4 22H20C21.1046 22 22 21.1046 22 20V8L14 2H4Z" fill="#F5F5F5" stroke="#E0E0E0" stroke-width="0.5"/>
  <path d="M14 2V8C14 9.10457 14.8954 10 16 10H22L14 2Z" fill="#E8E8E8"/>
  <circle cx="8" cy="10" r="1.5" fill="#F57C00"/>
  <path d="M4 14L7 11L10 14L20 14V18C20 18.5523 19.5523 19 19 19H5C4.44772 19 4 18.5523 4 18V14Z" fill="#FFA726" opacity="0.6"/>
</svg>