<svg width="20" height="20" viewBox="0 0 20 20" fill="none" xmlns="http://www.w3.org/2000/svg">
<path fill-rule="evenodd" clip-rule="evenodd" d="M8.33594 16.4583C8.33594 15.9981 8.70902 15.625 9.16927 15.625H14.1693C14.6295 15.625 15.0026 15.9981 15.0026 16.4583C15.0026 16.9186 14.6295 17.2917 14.1693 17.2917H9.16927C8.70902 17.2917 8.33594 16.9186 8.33594 16.4583Z" fill="#020409"/>
<path fill-rule="evenodd" clip-rule="evenodd" d="M11.7974 4.98568L5.31048 11.4726C4.5033 12.2796 4.00997 12.7728 3.67066 13.38C3.48139 13.7187 3.31606 14.2325 3.16977 14.7582C3.01927 15.299 2.87111 15.9213 2.72968 16.5153L2.72794 16.5225C2.67768 16.7337 2.74054 16.9558 2.89401 17.1093C3.04748 17.2627 3.26958 17.3256 3.48071 17.2753L3.48795 17.2736C4.08184 17.1323 4.70439 16.984 5.24509 16.8335C5.77079 16.6872 6.28454 16.5219 6.62324 16.3326C7.23045 15.9933 7.72365 15.5 8.53069 14.6928L15.0176 8.20583L11.7974 4.98568ZM15.9014 7.32195L16.6274 6.59605C17.5166 5.70683 17.5166 4.26512 16.6274 3.3759C15.7382 2.48668 14.2964 2.48668 13.4072 3.3759L12.6814 4.1018L15.9014 7.32195Z" fill="#020409"/>
</svg>
