<svg width="16" height="16" viewBox="0 0 16 16" fill="none" xmlns="http://www.w3.org/2000/svg">
<path fill-rule="evenodd" clip-rule="evenodd" d="M9.94927 1.85755C8.64727 1.82483 7.35794 1.82483 6.05593 1.85754L6.01715 1.85852C5.0006 1.88404 4.18262 1.90458 3.52707 2.01874C2.84074 2.13827 2.28292 2.36752 1.81168 2.84056C1.34241 3.31161 1.11436 3.86141 0.99711 4.53661C0.885463 5.17953 0.868457 5.97754 0.847397 6.96608L0.846557 7.00528C0.832397 7.66948 0.832397 8.32988 0.846563 8.99408L0.847397 9.03328C0.868463 10.0218 0.885463 10.8198 0.99711 11.4627C1.11436 12.1379 1.34242 12.6877 1.81168 13.1588C2.28292 13.6318 2.84074 13.8611 3.52707 13.9806C4.18261 14.0947 5.00058 14.1153 6.01712 14.1408L6.05593 14.1418C7.35794 14.1745 8.64727 14.1745 9.94927 14.1418L9.98807 14.1408C11.0046 14.1153 11.8226 14.0947 12.4781 13.9806C13.1645 13.8611 13.7223 13.6318 14.1935 13.1588C14.6628 12.6877 14.8909 12.1379 15.0081 11.4627C15.1197 10.8198 15.1367 10.0218 15.1578 9.03321L15.1587 8.99408C15.1728 8.32988 15.1728 7.66948 15.1587 7.00528L15.1578 6.96614C15.1367 5.97756 15.1197 5.17954 15.0081 4.53662C14.8909 3.86142 14.6628 3.31162 14.1935 2.84057C13.7223 2.36754 13.1645 2.13828 12.4781 2.01876C11.8226 1.90459 11.0046 1.88405 9.98807 1.85852L9.94927 1.85755ZM4.92382 5.23602C4.68612 5.09548 4.37949 5.17425 4.23895 5.41195C4.09841 5.64966 4.17718 5.95628 4.41488 6.09682L6.37622 7.25641C6.9568 7.59968 7.45774 7.83308 8.00267 7.83308C8.5476 7.83308 9.0486 7.59968 9.62914 7.25641L11.5905 6.09682C11.8282 5.95628 11.9069 5.64966 11.7664 5.41195C11.6259 5.17425 11.3193 5.09548 11.0815 5.23602L9.1202 6.39564C8.55727 6.72848 8.258 6.83308 8.00267 6.83308C7.74734 6.83308 7.44807 6.72848 6.88514 6.39564L4.92382 5.23602Z" fill="#020409"/>
</svg>
