<svg width="16" height="16" viewBox="0 0 16 16" fill="none" xmlns="http://www.w3.org/2000/svg">
<path fill-rule="evenodd" clip-rule="evenodd" d="M8.00005 1.16699C8.52485 1.16699 8.98759 1.34683 9.47465 1.6403C9.94532 1.92389 10.4823 2.34149 11.1511 2.86165L11.1719 2.87793L12.5053 3.91504L13.0867 4.37077C13.6152 4.79542 13.9866 5.14713 14.2117 5.6071L14.2644 5.72363C14.5103 6.30997 14.5001 6.98846 14.5001 7.99319V9.70539C14.5001 10.7731 14.5001 11.6255 14.4102 12.2939C14.3231 12.9417 14.1444 13.4823 13.7514 13.9183L13.67 14.0036C13.2199 14.4537 12.6512 14.6509 11.9603 14.7438C11.4286 14.8153 10.7805 14.8294 10.0001 14.8323H6.00006C5.21968 14.8294 4.57154 14.8153 4.03977 14.7438C3.39199 14.6567 2.85136 14.478 2.41542 14.085L2.33013 14.0036C1.88007 13.5535 1.68278 12.9848 1.5899 12.2939C1.52169 11.7866 1.50533 11.1734 1.50136 10.4405L1.50006 9.66699V7.99319C1.50005 6.92146 1.48847 6.22051 1.78847 5.6071C2.08854 4.99382 2.64896 4.57295 3.49485 3.91504L4.82818 2.87793L5.31256 2.50228C5.77389 2.14707 6.16875 1.85523 6.52545 1.6403C7.01252 1.34682 7.47525 1.16701 8.00005 1.16699ZM8.00005 8.66633C7.05739 8.66633 6.58592 8.66653 6.29303 8.95933C6.00019 9.25219 6.00006 9.72373 6.00006 10.6663V13.499H10.0001V10.6663C10.0001 9.72366 9.99999 9.25219 9.70712 8.95933C9.41419 8.66653 8.94272 8.66633 8.00005 8.66633Z" fill="#020409"/>
</svg>
