<svg width="16" height="16" viewBox="0 0 16 16" fill="none" xmlns="http://www.w3.org/2000/svg">
<g clip-path="url(#clip0_3573_25117)">
<path fill-rule="evenodd" clip-rule="evenodd" d="M5.28667 0.833985H5.3774C6.24791 0.833965 6.9657 0.833945 7.53383 0.911358C8.1303 0.992625 8.6571 1.16982 9.0789 1.59728C9.50063 2.02475 9.6755 2.55862 9.7557 3.16311C9.8321 3.73889 9.83203 4.46639 9.83203 5.34861V15.1673H5.28668C4.41617 15.1673 3.69834 15.1674 3.13021 15.0899C2.53375 15.0087 2.00697 14.8315 1.58519 14.4041C1.16341 13.9766 0.988565 13.4427 0.908372 12.8382C0.831992 12.2624 0.832012 11.5349 0.832032 10.6527V5.34861C0.832012 4.46639 0.831992 3.73889 0.908372 3.16311C0.988565 2.55862 1.16341 2.02475 1.58519 1.59728C2.00697 1.16982 2.53375 0.992625 3.13021 0.911358C3.69834 0.833945 4.41616 0.833965 5.28667 0.833985ZM3.30153 2.20276C2.84763 2.26461 2.63741 2.37366 2.49433 2.51867C2.35125 2.66367 2.24365 2.87673 2.18263 3.33674C2.11911 3.81549 2.11775 4.45479 2.11775 5.39459V10.6067C2.11775 11.5465 2.11911 12.1859 2.18263 12.6646C2.24365 13.1246 2.35125 13.3377 2.49433 13.4827C2.63741 13.6277 2.84763 13.7367 3.30153 13.7985C3.77391 13.8629 4.40472 13.8643 5.33203 13.8643H8.5463V5.39459C8.5463 4.45479 8.54497 3.81549 8.48143 3.33674C8.42043 2.87673 8.31283 2.66367 8.16977 2.51867C8.02663 2.37366 7.81643 2.26461 7.36257 2.20276C6.89017 2.1384 6.25935 2.13702 5.33203 2.13702C4.40472 2.13702 3.77391 2.1384 3.30153 2.20276Z" fill="#020409"/>
<path fill-rule="evenodd" clip-rule="evenodd" d="M3 4.66667C3 4.29848 3.29848 4 3.66667 4H4.33333C4.70152 4 5 4.29848 5 4.66667C5 5.03485 4.70152 5.33333 4.33333 5.33333H3.66667C3.29848 5.33333 3 5.03485 3 4.66667ZM5.66667 4.66667C5.66667 4.29848 5.96515 4 6.33333 4H7C7.3682 4 7.66667 4.29848 7.66667 4.66667C7.66667 5.03485 7.3682 5.33333 7 5.33333H6.33333C5.96515 5.33333 5.66667 5.03485 5.66667 4.66667ZM3 7.33333C3 6.96513 3.29848 6.66667 3.66667 6.66667H4.33333C4.70152 6.66667 5 6.96513 5 7.33333C5 7.70153 4.70152 8 4.33333 8H3.66667C3.29848 8 3 7.70153 3 7.33333ZM5.66667 7.33333C5.66667 6.96513 5.96515 6.66667 6.33333 6.66667H7C7.3682 6.66667 7.66667 6.96513 7.66667 7.33333C7.66667 7.70153 7.3682 8 7 8H6.33333C5.96515 8 5.66667 7.70153 5.66667 7.33333ZM3 10C3 9.6318 3.29848 9.33333 3.66667 9.33333H4.33333C4.70152 9.33333 5 9.6318 5 10C5 10.3682 4.70152 10.6667 4.33333 10.6667H3.66667C3.29848 10.6667 3 10.3682 3 10ZM5.66667 10C5.66667 9.6318 5.96515 9.33333 6.33333 9.33333H7C7.3682 9.33333 7.66667 9.6318 7.66667 10C7.66667 10.3682 7.3682 10.6667 7 10.6667H6.33333C5.96515 10.6667 5.66667 10.3682 5.66667 10Z" fill="#020409"/>
<path fill-rule="evenodd" clip-rule="evenodd" d="M14.6284 5.37096C14.3248 5.06731 13.9469 4.94353 13.5284 4.88727C13.1318 4.83395 12.6324 4.83397 12.0334 4.83399H8.83203V15.1673H12.0334C12.6324 15.1673 13.1318 15.1674 13.5284 15.1141C13.9469 15.0578 14.3248 14.934 14.6284 14.6303C14.932 14.3267 15.0558 13.9489 15.1121 13.5303C15.1654 13.1338 15.1654 12.6343 15.1654 12.0353V7.96599C15.1654 7.36699 15.1654 6.86752 15.1121 6.471C15.0558 6.05247 14.932 5.67461 14.6284 5.37096ZM11.6654 6.83399C11.3892 6.83399 11.1654 7.05785 11.1654 7.33399C11.1654 7.61012 11.3892 7.83399 11.6654 7.83399H12.332C12.6082 7.83399 12.832 7.61012 12.832 7.33399C12.832 7.05785 12.6082 6.83399 12.332 6.83399H11.6654ZM11.6654 9.50065C11.3892 9.50065 11.1654 9.72452 11.1654 10.0007C11.1654 10.2768 11.3892 10.5007 11.6654 10.5007H12.332C12.6082 10.5007 12.832 10.2768 12.832 10.0007C12.832 9.72452 12.6082 9.50065 12.332 9.50065H11.6654Z" fill="#020409"/>
</g>
<defs>
<clipPath id="clip0_3573_25117">
<rect width="16" height="16" fill="white"/>
</clipPath>
</defs>
</svg>
