<svg width="20" height="20" viewBox="0 0 20 20" fill="none" xmlns="http://www.w3.org/2000/svg">
<path fill-rule="evenodd" clip-rule="evenodd" d="M11.291 2.70898C12.8235 2.70898 14.027 2.70897 14.9758 2.81615C15.9443 2.92555 16.7296 3.15367 17.3825 3.66922C17.5779 3.82356 17.7591 3.99403 17.9238 4.17882C18.479 4.80149 18.7269 5.55623 18.845 6.48219C18.8586 6.58873 18.8653 6.64201 18.8531 6.6888C18.8336 6.76359 18.7762 6.82878 18.7045 6.85761C18.6596 6.87565 18.6035 6.87565 18.4911 6.87565H1.5115C1.39919 6.87565 1.34303 6.87565 1.29815 6.85761C1.22643 6.82878 1.16904 6.76359 1.1495 6.6888C1.13729 6.64201 1.14408 6.58873 1.15767 6.48219C1.27574 5.55623 1.52365 4.80149 2.07879 4.17882C2.24354 3.99403 2.42474 3.82356 2.62017 3.66922C3.27299 3.15367 4.05833 2.92555 5.02679 2.81615C5.97562 2.70897 7.17919 2.70898 8.71172 2.70898H11.291ZM18.9596 10.0446C18.9596 11.4813 18.9596 12.6196 18.845 13.5192C18.7269 14.4451 18.479 15.1998 17.9238 15.8225C17.7591 16.0072 17.5779 16.1777 17.3825 16.3321C16.7296 16.8477 15.9443 17.0757 14.9758 17.1852C14.027 17.2923 12.8235 17.2923 11.2909 17.2923H8.71172C7.17918 17.2923 5.97561 17.2923 5.02679 17.1852C4.05832 17.0757 3.27297 16.8477 2.62016 16.3321C2.42473 16.1777 2.24354 16.0072 2.07879 15.8225C1.52364 15.1998 1.27574 14.4451 1.15766 13.5192C1.04295 12.6196 1.04296 11.4812 1.04297 10.0446V9.95673C1.04297 9.4769 1.04296 9.0304 1.04724 8.6149C1.04959 8.38515 1.05078 8.27028 1.12384 8.19797C1.1969 8.12565 1.31264 8.12565 1.54413 8.12565H18.4585C18.69 8.12565 18.8057 8.12565 18.8788 8.19797C18.9518 8.27028 18.9531 8.38515 18.9554 8.6149C18.9596 9.03023 18.9596 9.47665 18.9596 9.95623V10.0446ZM8.54297 13.334C8.54297 12.9888 8.8228 12.709 9.16797 12.709H10.418C10.7631 12.709 11.043 12.9888 11.043 13.334C11.043 13.6792 10.7631 13.959 10.418 13.959H9.16797C8.8228 13.959 8.54297 13.6792 8.54297 13.334ZM12.918 12.709C12.5728 12.709 12.293 12.9888 12.293 13.334C12.293 13.6792 12.5728 13.959 12.918 13.959H15.8346C16.1798 13.959 16.4596 13.6792 16.4596 13.334C16.4596 12.9888 16.1798 12.709 15.8346 12.709H12.918Z" fill="#020409"/>
</svg>
