<svg width="20" height="20" viewBox="0 0 20 20" fill="none" xmlns="http://www.w3.org/2000/svg">
<path d="M14.6105 11.4845C15.2005 10.8945 16.157 10.8945 16.747 11.4845L17.2659 12.0033C17.8559 12.5933 17.8559 13.5499 17.2659 14.1398L14.4752 16.9305C14.017 17.3887 13.4335 17.701 12.798 17.8281L11.3726 18.1132C11.1677 18.1542 10.9559 18.09 10.808 17.9422C10.6603 17.7945 10.5962 17.5827 10.6371 17.3777L10.9222 15.9523C11.0493 15.3169 11.3616 14.7333 11.8199 14.2752L14.6105 11.4845Z" fill="#020409"/>
<path d="M9.59773 17.2916C9.60273 17.2521 9.60914 17.2126 9.61706 17.1731L9.90214 15.7477C10.0696 14.9106 10.481 14.1418 11.0846 13.5382L12.9032 11.7196C12.1377 11.0765 11.2208 10.6077 10.2137 10.3746C11.9108 9.77289 13.1263 8.15337 13.1263 6.25C13.1263 3.83376 11.1676 1.875 8.75131 1.875C6.33505 1.875 4.3763 3.83376 4.3763 6.25C4.3763 8.15337 5.59178 9.77289 7.28889 10.3746C4.42648 11.0372 2.29297 13.6028 2.29297 16.6666C2.29297 17.0118 2.57279 17.2916 2.91797 17.2916H9.59773Z" fill="#020409"/>
</svg>
