<svg width="16" height="16" viewBox="0 0 16 16" fill="none" xmlns="http://www.w3.org/2000/svg">
<path d="M6.0582 3.37105L5.88936 2.99117C5.66194 2.47947 5.54824 2.22363 5.3611 2.04279C5.23758 1.92341 5.09222 1.82895 4.93296 1.76455C4.6917 1.66699 4.41173 1.66699 3.85177 1.66699C3.018 1.66699 2.60112 1.66699 2.2763 1.86941C2.07709 1.99356 1.88656 2.20433 1.78308 2.41503C1.61436 2.75856 1.65264 3.13704 1.72918 3.894C2.36434 10.1752 5.82252 13.6334 12.1037 14.2685C12.8607 14.3451 13.2392 14.3834 13.5827 14.2146C13.7934 14.1112 14.0042 13.9206 14.1283 13.7214C14.3307 13.3966 14.3307 12.9797 14.3307 12.146C14.3307 11.586 14.3307 11.306 14.2332 11.0648C14.1688 10.9055 14.0743 10.7601 13.9549 10.6366C13.7741 10.4495 13.5182 10.3358 13.0066 10.1084L12.6266 9.93951C12.1783 9.74025 11.9541 9.64058 11.7292 9.62165C11.49 9.60151 11.2498 9.64618 11.0338 9.75078C10.8307 9.84918 10.6572 10.0226 10.3102 10.3696C9.9689 10.711 9.79824 10.8816 9.57604 10.9821C9.3597 11.0799 9.05577 11.1215 8.82117 11.0854C8.5801 11.0482 8.4029 10.9483 8.0485 10.7484C6.79224 10.0398 5.95789 9.20551 5.24931 7.94918C5.04943 7.59485 4.94949 7.41765 4.91236 7.17651C4.87623 6.94198 4.9178 6.63799 5.0156 6.42171C5.1161 6.19945 5.28677 6.02879 5.6281 5.68746C5.97504 5.34051 6.14851 5.16705 6.24691 4.96395C6.35157 4.74791 6.39618 4.50769 6.37604 4.26848C6.35711 4.0436 6.25748 3.81941 6.0582 3.37105Z" fill="#020409"/>
</svg>
