<svg width="20" height="20" viewBox="0 0 20 20" fill="none" xmlns="http://www.w3.org/2000/svg">
<path fill-rule="evenodd" clip-rule="evenodd" d="M15.6421 12.7212C15.585 13.6538 15.5397 14.3939 15.4469 14.9851C15.3517 15.5914 15.1992 16.0963 14.8943 16.5379C14.6154 16.9419 14.2563 17.2829 13.8399 17.5391C13.3846 17.8193 12.8763 17.9418 12.2713 18.0003L7.71246 18.0003C7.10675 17.9415 6.59787 17.8188 6.14232 17.5382C5.72559 17.2815 5.36636 16.9399 5.08754 16.5352C4.78274 16.0928 4.6308 15.5872 4.53629 14.9801C4.44413 14.3881 4.39984 13.6469 4.34402 12.7129L3.85938 4.60449H16.1389L15.6421 12.7212ZM8.1386 14.4362C7.83034 14.4362 7.58044 14.1864 7.58044 13.8781V9.41278C7.58044 9.10453 7.83034 8.85462 8.1386 8.85462C8.44686 8.85462 8.69676 9.10453 8.69676 9.41278V13.8781C8.69676 14.1864 8.44686 14.4362 8.1386 14.4362ZM12.4178 9.41278C12.4178 9.10453 12.1679 8.85462 11.8597 8.85462C11.5514 8.85462 11.3015 9.10453 11.3015 9.41278V13.8781C11.3015 14.1864 11.5514 14.4362 11.8597 14.4362C12.1679 14.4362 12.4178 14.1864 12.4178 13.8781V9.41278Z" fill="#DC2626"/>
<path fill-rule="evenodd" clip-rule="evenodd" d="M11.0034 2.02439C11.424 2.062 11.8192 2.19034 12.1586 2.44348C12.4097 2.6307 12.584 2.85988 12.733 3.10808C12.8711 3.33808 13.0101 3.62484 13.1677 3.95013L13.4854 4.60527H16.6986C17.1097 4.60527 17.4429 4.93846 17.4429 5.34948C17.4429 5.7605 17.1097 6.09369 16.6986 6.09369C12.2332 6.09369 7.76823 6.09369 3.30281 6.09369C2.89179 6.09369 2.55859 5.7605 2.55859 5.34948C2.55859 4.93846 2.89179 4.60527 3.30281 4.60527H6.58461L6.8494 4.02438C7.00312 3.6871 7.1385 3.39005 7.27449 3.1517C7.42118 2.89459 7.59484 2.65667 7.84891 2.46175C8.19252 2.19815 8.59572 2.06451 9.02573 2.02537C9.34946 1.9959 9.6758 1.99995 10.0007 2.00047C10.3809 2.00108 10.7226 1.99927 11.0034 2.02439ZM8.22039 4.60527H11.8313C11.6626 4.25743 11.5546 4.03696 11.4569 3.87408C11.3137 3.63568 11.1423 3.53118 10.8708 3.5069C10.6778 3.48964 10.4263 3.48895 10.0264 3.48895C9.61649 3.48895 9.35847 3.48966 9.16066 3.50766C8.88225 3.53301 8.7087 3.64149 8.5673 3.8893C8.47465 4.0517 8.37378 4.26908 8.22039 4.60527Z" fill="#DC2626"/>
</svg>
