<svg width="32" height="32" viewBox="0 0 32 32" fill="none" xmlns="http://www.w3.org/2000/svg">
<path fill-rule="evenodd" clip-rule="evenodd" d="M16.0003 1.66675C8.08425 1.66675 1.66699 8.084 1.66699 16.0001C1.66699 23.9162 8.08425 30.3334 16.0003 30.3334C23.9165 30.3334 30.3337 23.9162 30.3337 16.0001C30.3337 8.084 23.9165 1.66675 16.0003 1.66675ZM17.3337 10.6667C17.3337 9.93037 16.7367 9.33341 16.0003 9.33341C15.2639 9.33341 14.667 9.93037 14.667 10.6667V16.0001C14.667 16.3537 14.8075 16.6929 15.0575 16.9429L17.7242 19.6095C18.2449 20.1302 19.0891 20.1302 19.6098 19.6095C20.1305 19.0889 20.1305 18.2446 19.6098 17.7239L17.3337 15.4478V10.6667Z" fill="white"/>
</svg>
