<svg width="32" height="32" viewBox="0 0 32 32" fill="none" xmlns="http://www.w3.org/2000/svg">
<path fill-rule="evenodd" clip-rule="evenodd" d="M14.2366 3.93928C15.1098 2.24257 17.5575 2.24257 18.4307 3.93928L21.3727 9.65652C21.4215 9.75139 21.5133 9.81741 21.6194 9.83416L28.0145 10.8428C29.9113 11.142 30.6671 13.4438 29.3107 14.7907L24.7326 19.3367C24.6567 19.4121 24.6218 19.5186 24.6386 19.6237L25.6477 25.9683C25.9467 27.8487 23.9669 29.2719 22.2543 28.4079L16.4863 25.4979C16.3905 25.4495 16.2769 25.4495 16.181 25.4979L10.413 28.4079C8.70039 29.2719 6.72064 27.8487 7.0197 25.9683L8.02878 19.6237C8.04548 19.5186 8.01054 19.4121 7.93471 19.3367L3.35656 14.7907C2.00023 13.4438 2.75607 11.142 4.65287 10.8428L11.0479 9.83416C11.1541 9.81741 11.2458 9.75139 11.2946 9.65652L14.2366 3.93928Z" fill="white"/>
</svg>
