<svg width="32" height="32" viewBox="0 0 32 32" fill="none" xmlns="http://www.w3.org/2000/svg">
<path fill-rule="evenodd" clip-rule="evenodd" d="M14.4451 2.0517C15.4145 1.53843 16.5855 1.53843 17.5549 2.0517C19.1575 2.9002 22.4405 4.42775 26.3781 5.11222C27.8307 5.36474 29 6.60646 29 8.16442V14.7349C29 19.3893 26.6272 22.9448 24.0105 25.4446C21.3972 27.9413 18.464 29.4634 17.1288 30.0826C16.4076 30.417 15.5924 30.417 14.8712 30.0826C13.536 29.4634 10.6027 27.9413 7.98952 25.4446C5.37285 22.9448 3 19.3893 3 14.7349V8.16442C3 6.60646 4.16928 5.36474 5.62192 5.11222C9.55947 4.42775 12.8425 2.9002 14.4451 2.0517ZM12.6667 11.0001C12.6667 9.1587 14.16 7.66675 16.0011 7.66675C17.8421 7.66675 19.3355 9.1587 19.3355 11.0001C19.3355 12.8415 17.8421 14.3334 16.0011 14.3334C14.16 14.3334 12.6667 12.8415 12.6667 11.0001ZM14.8333 15.6668C12.3481 15.6668 10.3333 17.6814 10.3333 20.1668C10.3333 21.3634 11.3034 22.3334 12.5 22.3334H19.5C20.6967 22.3334 21.6667 21.3634 21.6667 20.1668C21.6667 17.6814 19.652 15.6668 17.1667 15.6668H14.8333Z" fill="white"/>
</svg>
