<svg width="11" height="3" viewBox="0 0 11 3" fill="none" xmlns="http://www.w3.org/2000/svg">
<path d="M1.16842 2.33612C0.837755 2.33612 0.560422 2.22412 0.336422 2.00012C0.112422 1.77612 0.000421882 1.49879 0.000421882 1.16812C0.000421882 0.837454 0.112422 0.560121 0.336422 0.336121C0.560422 0.112121 0.837755 0.000120878 1.16842 0.000120878C1.48842 0.000120878 1.76042 0.112121 1.98442 0.336121C2.20842 0.560121 2.32042 0.837454 2.32042 1.16812C2.32042 1.49879 2.20842 1.77612 1.98442 2.00012C1.76042 2.22412 1.48842 2.33612 1.16842 2.33612ZM5.0278 2.33612C4.69713 2.33612 4.4198 2.22412 4.1958 2.00012C3.9718 1.77612 3.8598 1.49879 3.8598 1.16812C3.8598 0.837454 3.9718 0.560121 4.1958 0.336121C4.4198 0.112121 4.69713 0.000120878 5.0278 0.000120878C5.3478 0.000120878 5.6198 0.112121 5.8438 0.336121C6.0678 0.560121 6.1798 0.837454 6.1798 1.16812C6.1798 1.49879 6.0678 1.77612 5.8438 2.00012C5.6198 2.22412 5.3478 2.33612 5.0278 2.33612ZM8.88717 2.33612C8.55651 2.33612 8.27917 2.22412 8.05517 2.00012C7.83117 1.77612 7.71917 1.49879 7.71917 1.16812C7.71917 0.837454 7.83117 0.560121 8.05517 0.336121C8.27917 0.112121 8.55651 0.000120878 8.88717 0.000120878C9.20717 0.000120878 9.47917 0.112121 9.70317 0.336121C9.92717 0.560121 10.0392 0.837454 10.0392 1.16812C10.0392 1.49879 9.92717 1.77612 9.70317 2.00012C9.47917 2.22412 9.20717 2.33612 8.88717 2.33612Z" fill="#020409"/>
</svg>
