<svg width="132" height="20" viewBox="0 0 132 20" fill="none" xmlns="http://www.w3.org/2000/svg">
<path d="M16.1818 13.0502C17.6576 11.3534 18.9577 9.29425 18.9577 7.24536C18.9576 4.54343 16.9563 2.29175 14.166 2.29175C12.8395 2.29175 11.5545 2.71898 9.99935 4.13745C8.44418 2.71898 7.15922 2.29175 5.83268 2.29175C3.04232 2.29175 1.04106 4.54343 1.04102 7.24536C1.04102 9.29425 2.3411 11.3534 3.81689 13.0502C5.31563 14.7733 7.10693 16.2475 8.30094 17.1404L8.4946 17.2738C9.48368 17.8952 10.7481 17.8504 11.6978 17.1404L12.1722 16.7791C13.3353 15.8751 14.8704 14.5579 16.1818 13.0502Z" fill="#FEC717"/>
<path d="M44.1818 13.0502C45.6576 11.3534 46.9577 9.29425 46.9577 7.24536C46.9576 4.54343 44.9563 2.29175 42.166 2.29175C40.8395 2.29175 39.5545 2.71898 37.9993 4.13745C36.4442 2.71898 35.1592 2.29175 33.8327 2.29175C31.0423 2.29175 29.0411 4.54343 29.041 7.24536C29.041 9.29425 30.3411 11.3534 31.8169 13.0502C33.3156 14.7733 35.1069 16.2475 36.3009 17.1404L36.4946 17.2738C37.4837 17.8952 38.7481 17.8504 39.6978 17.1404L40.1722 16.7791C41.3353 15.8751 42.8704 14.5579 44.1818 13.0502Z" fill="#FEC717"/>
<path d="M72.1818 13.0502C73.6576 11.3534 74.9577 9.29425 74.9577 7.24536C74.9576 4.54343 72.9563 2.29175 70.166 2.29175C68.8395 2.29175 67.5545 2.71898 65.9993 4.13745C64.4442 2.71898 63.1592 2.29175 61.8327 2.29175C59.0423 2.29175 57.0411 4.54343 57.041 7.24536C57.041 9.29425 58.3411 11.3534 59.8169 13.0502C61.3156 14.7733 63.1069 16.2475 64.3009 17.1404L64.4946 17.2738C65.4837 17.8952 66.7481 17.8504 67.6978 17.1404L68.1722 16.7791C69.3353 15.8751 70.8704 14.5579 72.1818 13.0502Z" fill="#FEC717"/>
<path d="M100.182 13.0502C101.658 11.3534 102.958 9.29425 102.958 7.24536C102.958 4.54343 100.956 2.29175 98.166 2.29175C96.8395 2.29175 95.5545 2.71898 93.9993 4.13745C92.4442 2.71898 91.1592 2.29175 89.8327 2.29175C87.0423 2.29175 85.0411 4.54343 85.041 7.24536C85.041 9.29425 86.3411 11.3534 87.8169 13.0502C89.3156 14.7733 91.1069 16.2475 92.3009 17.1404L92.4946 17.2738C93.4837 17.8952 94.7481 17.8504 95.6978 17.1404L96.1722 16.7791C97.3353 15.8751 98.8704 14.5579 100.182 13.0502Z" fill="#FEC717"/>
<path d="M128.182 13.0502C129.658 11.3534 130.958 9.29425 130.958 7.24536C130.958 4.54343 128.956 2.29175 126.166 2.29175C124.84 2.29175 123.555 2.71898 121.999 4.13745C120.444 2.71898 119.159 2.29175 117.833 2.29175C115.042 2.29175 113.041 4.54343 113.041 7.24536C113.041 9.29425 114.341 11.3534 115.817 13.0502C117.316 14.7733 119.107 16.2475 120.301 17.1404L120.495 17.2738C121.484 17.8952 122.748 17.8504 123.698 17.1404L124.172 16.7791C125.335 15.8751 126.87 14.5579 128.182 13.0502Z" fill="#FEC717"/>
</svg>
