<svg width="16" height="16" viewBox="0 0 16 16" fill="none" xmlns="http://www.w3.org/2000/svg">
<g clip-path="url(#clip0_3933_14689)">
<path fill-rule="evenodd" clip-rule="evenodd" d="M7.99967 0.833008C4.04163 0.833008 0.833008 4.04163 0.833008 7.99967C0.833008 11.9577 4.04163 15.1663 7.99967 15.1663C11.9577 15.1663 15.1663 11.9577 15.1663 7.99967C15.1663 4.04163 11.9577 0.833008 7.99967 0.833008ZM8.66634 5.33301C8.66634 4.96482 8.36787 4.66634 7.99967 4.66634C7.63147 4.66634 7.33301 4.96482 7.33301 5.33301V7.99967C7.33301 8.17647 7.40327 8.34607 7.52827 8.47107L8.86161 9.80441C9.12194 10.0647 9.54407 10.0647 9.80441 9.80441C10.0647 9.54407 10.0647 9.12194 9.80441 8.86161L8.66634 7.72354V5.33301Z" fill="#9CA3AF"/>
</g>
<defs>
<clipPath id="clip0_3933_14689">
<rect width="16" height="16" fill="white"/>
</clipPath>
</defs>
</svg>
