<svg width="20" height="20" viewBox="0 0 20 20" fill="none" xmlns="http://www.w3.org/2000/svg">
<path d="M9.18608 16.2727V3.54545H10.0014V16.2727H9.18608ZM11.5376 7.61719C11.4912 7.183 11.2957 6.84493 10.951 6.60298C10.6096 6.36103 10.1655 6.24006 9.61861 6.24006C9.23414 6.24006 8.90436 6.29806 8.62926 6.41406C8.35417 6.53007 8.1437 6.6875 7.99787 6.88636C7.85204 7.08523 7.77746 7.31226 7.77415 7.56747C7.77415 7.77959 7.82221 7.96354 7.91832 8.11932C8.01776 8.27509 8.15199 8.40767 8.32102 8.51705C8.49006 8.62311 8.67732 8.71259 8.88281 8.78551C9.08831 8.85843 9.29545 8.91974 9.50426 8.96946L10.4588 9.2081C10.8433 9.29758 11.2128 9.41856 11.5675 9.57102C11.9254 9.72348 12.2453 9.91572 12.527 10.1477C12.812 10.3797 13.0374 10.6598 13.2031 10.9879C13.3688 11.3161 13.4517 11.7005 13.4517 12.1413C13.4517 12.7379 13.2992 13.2633 12.9943 13.7173C12.6894 14.1681 12.2486 14.5211 11.6719 14.7763C11.0985 15.0282 10.4041 15.1541 9.58878 15.1541C8.79664 15.1541 8.1089 15.0315 7.52557 14.7862C6.94555 14.541 6.49148 14.183 6.16335 13.7124C5.83854 13.2417 5.66288 12.6683 5.63636 11.9922H7.45099C7.47751 12.3468 7.58688 12.6418 7.77912 12.8771C7.97135 13.1125 8.22159 13.2881 8.52983 13.4041C8.84138 13.5201 9.18939 13.5781 9.57386 13.5781C9.97491 13.5781 10.3262 13.5185 10.6278 13.3991C10.9328 13.2765 11.1714 13.1075 11.3438 12.892C11.5161 12.6733 11.6039 12.4181 11.6072 12.1264C11.6039 11.8613 11.526 11.6425 11.3736 11.4702C11.2211 11.2945 11.0073 11.1487 10.7322 11.0327C10.4605 10.9134 10.1423 10.8073 9.7777 10.7145L8.61932 10.4162C7.78078 10.2008 7.1179 9.87429 6.63068 9.43679C6.14678 8.99598 5.90483 8.41098 5.90483 7.68182C5.90483 7.08191 6.06723 6.55658 6.39205 6.10582C6.72017 5.65507 7.16596 5.3054 7.7294 5.05682C8.29285 4.80492 8.93087 4.67898 9.64347 4.67898C10.366 4.67898 10.9991 4.80492 11.5426 5.05682C12.0895 5.3054 12.5187 5.65175 12.8303 6.09588C13.1418 6.53669 13.3026 7.0438 13.3125 7.61719H11.5376Z" fill="#6B7280"/>
</svg>
