<svg width="16" height="16" viewBox="0 0 16 16" fill="none" xmlns="http://www.w3.org/2000/svg">
<path d="M4 11.983C4.0858 12.8553 4.27971 13.4424 4.71794 13.8806C5.50397 14.6667 6.76907 14.6667 9.29927 14.6667C11.8295 14.6667 13.0946 14.6667 13.8806 13.8806C14.6667 13.0946 14.6667 11.8295 14.6667 9.29927C14.6667 6.76907 14.6667 5.50397 13.8806 4.71794C13.4424 4.27971 12.8553 4.0858 11.983 4" stroke="#9CA3AF" stroke-width="1.2"/>
<path d="M1.33301 6.66658C1.33301 4.15243 1.33301 2.89535 2.11405 2.1143C2.89511 1.33325 4.15218 1.33325 6.66634 1.33325C9.18047 1.33325 10.4376 1.33325 11.2186 2.1143C11.9997 2.89535 11.9997 4.15243 11.9997 6.66658C11.9997 9.18072 11.9997 10.4379 11.2186 11.2189C10.4376 11.9999 9.18047 11.9999 6.66634 11.9999C4.15218 11.9999 2.89511 11.9999 2.11405 11.2189C1.33301 10.4379 1.33301 9.18072 1.33301 6.66658Z" stroke="#9CA3AF" stroke-width="1.2"/>
<path d="M1.33301 7.41228C1.74569 7.35981 2.1629 7.33394 2.58081 7.33481C4.34877 7.30214 6.07343 7.78414 7.44707 8.69488C8.72101 9.53954 9.61614 10.7019 9.99967 11.9999" stroke="#9CA3AF" stroke-width="1.2"/>
<path d="M8.66699 4.66664L8.80059 4.6665" stroke="#9CA3AF" stroke-width="1.2" stroke-linecap="round"/>
</svg>
