<svg width="16" height="16" viewBox="0 0 16 16" fill="none" xmlns="http://www.w3.org/2000/svg">
<path fill-rule="evenodd" clip-rule="evenodd" d="M1.33301 14.4999C1.33301 14.1317 1.63149 13.8333 1.99967 13.8333H13.9997C14.3679 13.8333 14.6663 14.1317 14.6663 14.4999C14.6663 14.8681 14.3679 15.1666 13.9997 15.1666H1.99967C1.63149 15.1666 1.33301 14.8681 1.33301 14.4999Z" fill="#0284C7"/>
<path fill-rule="evenodd" clip-rule="evenodd" d="M10.6975 2.83325C11.6671 2.89254 12.4329 3.05839 13.0043 3.63153C13.4541 4.08267 13.651 4.6528 13.7438 5.34524C13.8337 6.01572 13.8337 6.87072 13.8337 7.94239V14.6657C13.8337 14.9418 13.6098 15.1657 13.3337 15.1657H9.69779C9.95959 15.1497 10.167 14.9324 10.167 14.6666V12.9785C10.167 12.6853 10.167 12.4323 10.1482 12.2249C10.1283 12.0054 10.0843 11.7881 9.96606 11.5833C9.83439 11.3553 9.64499 11.1659 9.41699 11.0342C9.21219 10.916 8.99486 10.8719 8.77546 10.8521C8.56793 10.8333 8.31499 10.8333 8.02186 10.8333C7.72866 10.8333 7.43273 10.8333 7.22526 10.8521C7.00579 10.8719 6.78846 10.916 6.58366 11.0342C6.35563 11.1659 6.16627 11.3553 6.03463 11.5833C5.91638 11.7881 5.87234 12.0054 5.85245 12.2249C5.83364 12.4323 5.83365 12.6853 5.83366 12.9784V14.6666C5.83366 14.9324 6.04106 15.1497 6.30286 15.1657H2.66699C2.39085 15.1657 2.16699 14.9418 2.16699 14.6657V7.94239C2.16698 6.87072 2.16697 6.01572 2.25685 5.34524C2.34968 4.6528 2.54651 4.08267 2.99634 3.63153C3.56781 3.05839 4.3335 2.89254 5.30315 2.83325V4.03629C5.30315 5.29336 5.30315 5.9219 5.69367 6.31242C6.08419 6.70292 6.71273 6.70292 7.96979 6.70292H8.03086C9.28793 6.70292 9.91646 6.70292 10.307 6.31242C10.6975 5.9219 10.6975 5.29336 10.6975 4.03628V2.83325ZM9.16699 14.6666C9.16699 14.9324 9.37439 15.1497 9.63619 15.1657H6.36447C6.62626 15.1497 6.83366 14.9324 6.83366 14.6666V12.9999C6.83366 12.6792 6.83413 12.4721 6.84839 12.3151C6.86799 12.1594 6.94853 11.848 7.31546 11.848C7.47246 11.8337 7.67959 11.8333 8.00033 11.8333C8.32106 11.8333 8.52819 11.8337 8.68519 11.848C8.84086 11.8561 9.15226 11.9609 9.15226 12.3151C9.16653 12.4721 9.16699 12.6792 9.16699 12.9999V14.6666ZM5.33366 7.99992C4.96547 7.99992 4.66699 8.29839 4.66699 8.66658C4.66699 9.03478 4.96547 9.33325 5.33366 9.33325H5.33963C5.70783 9.33325 6.0063 9.03478 6.0063 8.66658C6.0063 8.29839 5.70783 7.99992 5.33963 7.99992H5.33366ZM7.99433 7.99992C7.62619 7.99992 7.32766 8.29839 7.32766 8.66658C7.32766 9.03478 7.62619 9.33325 7.99433 9.33325H8.00033C8.36853 9.33325 8.66699 9.03478 8.66699 8.66658C8.66699 8.29839 8.36853 7.99992 8.00033 7.99992H7.99433ZM10.6618 7.99992C10.2936 7.99992 9.99513 8.29839 9.99513 8.66658C9.99513 9.03478 10.2936 9.33325 10.6618 9.33325H10.6677C11.0359 9.33325 11.3344 9.03478 11.3344 8.66658C11.3344 8.29839 11.0359 7.99992 10.6677 7.99992H10.6618Z" fill="#0284C7"/>
<path fill-rule="evenodd" clip-rule="evenodd" d="M7.96501 0.833253H8.03434C8.63334 0.833233 9.13281 0.833219 9.52934 0.886526C9.94788 0.942799 10.3257 1.06658 10.6293 1.37023C10.933 1.67387 11.0568 2.05174 11.1131 2.47027C11.1664 2.86679 11.1663 3.36627 11.1663 3.96526V4.03459C11.1663 4.63357 11.1664 5.13305 11.1131 5.52957C11.0568 5.94811 10.933 6.32597 10.6293 6.62962C10.3257 6.93325 9.94788 7.05705 9.52934 7.11332C9.13281 7.16665 8.63334 7.16659 8.03434 7.16659H7.96501C7.36601 7.16659 6.86654 7.16665 6.47002 7.11332C6.0515 7.05705 5.67363 6.93325 5.36998 6.62962C5.06634 6.32597 4.94256 5.94811 4.88628 5.52957C4.83298 5.13305 4.83299 4.63357 4.83301 4.03459V3.96525C4.83299 3.36627 4.83298 2.86679 4.88628 2.47027C4.94256 2.05174 5.06634 1.67387 5.36998 1.37023C5.67363 1.06658 6.0515 0.942799 6.47002 0.886526C6.86654 0.833219 7.36601 0.833233 7.96501 0.833253ZM6.60327 1.87761C6.29563 1.91897 6.16397 1.99045 6.07709 2.07733C5.99021 2.16421 5.91873 2.29587 5.87737 2.60351C5.83408 2.92554 5.83301 3.35725 5.83301 3.99992C5.83301 4.64259 5.83408 5.0743 5.87737 5.39633C5.91873 5.70397 5.99021 5.83563 6.07709 5.92251C6.16397 6.00939 6.29563 6.08087 6.60327 6.12223C6.92528 6.16553 7.35701 6.16659 7.99968 6.16659C8.64234 6.16659 9.07408 6.16553 9.39608 6.12223C9.70374 6.08087 9.83541 6.00939 9.92228 5.92251C10.0091 5.83563 10.0806 5.70397 10.122 5.39633C10.1653 5.0743 10.1663 4.64259 10.1663 3.99992C10.1663 3.35725 10.1653 2.92554 10.122 2.60351C10.0806 2.29587 10.0091 2.16421 9.92228 2.07733C9.83541 1.99045 9.70374 1.91897 9.39608 1.87761C9.07408 1.83432 8.64234 1.83325 7.99968 1.83325C7.35701 1.83325 6.92528 1.83432 6.60327 1.87761Z" fill="#0284C7"/>
<path fill-rule="evenodd" clip-rule="evenodd" d="M8 2.5C8.27613 2.5 8.5 2.72386 8.5 3V3.5H9C9.27613 3.5 9.5 3.72386 9.5 4C9.5 4.27614 9.27613 4.5 9 4.5H8.5V5C8.5 5.27614 8.27613 5.5 8 5.5C7.72387 5.5 7.5 5.27614 7.5 5V4.5H7C6.72387 4.5 6.5 4.27614 6.5 4C6.5 3.72386 6.72387 3.5 7 3.5H7.5V3C7.5 2.72386 7.72387 2.5 8 2.5Z" fill="#0284C7"/>
</svg>
