<svg width="16" height="16" viewBox="0 0 16 16" fill="none" xmlns="http://www.w3.org/2000/svg">
<path d="M11.3337 13.4166C12.2541 13.4166 13.0003 12.6704 13.0003 11.7499C13.0003 10.8294 12.2541 10.0833 11.3337 10.0833C10.4132 10.0833 9.66699 10.8294 9.66699 11.7499C9.66699 12.6704 10.4132 13.4166 11.3337 13.4166Z" fill="#EC4899"/>
<path d="M4.66667 13.4166C5.58714 13.4166 6.33333 12.6704 6.33333 11.7499C6.33333 10.8294 5.58714 10.0833 4.66667 10.0833C3.74619 10.0833 3 10.8294 3 11.7499C3 12.6704 3.74619 13.4166 4.66667 13.4166Z" fill="#EC4899"/>
<path fill-rule="evenodd" clip-rule="evenodd" d="M9.49967 3.74992V4.58325H9.50227V6.41398C9.50227 6.69012 9.72614 6.91399 10.0023 6.91399C10.2784 6.91399 10.5023 6.69012 10.5023 6.41398V4.58325H12.0069C12.3669 4.58325 12.7068 4.74947 12.9279 5.03365L14.9206 7.59572C15.0799 7.80052 15.1663 8.05252 15.1663 8.31199L15.1657 8.58325H14.4945C14.2183 8.58325 13.9945 8.80712 13.9945 9.08325C13.9945 9.35939 14.2183 9.58325 14.4945 9.58325H15.1663V11.0833C15.1663 11.7276 14.644 12.2499 13.9997 12.2499H13.7489C13.7822 12.0885 13.7997 11.9213 13.7997 11.7499C13.7997 10.3876 12.6953 9.28325 11.333 9.28325C9.97067 9.28325 8.86634 10.3876 8.86634 11.7499C8.86634 11.9213 8.88381 12.0885 8.91707 12.2499H7.08227C7.11554 12.0885 7.13301 11.9213 7.13301 11.7499C7.13301 10.3876 6.02864 9.28325 4.66634 9.28325C3.30404 9.28325 2.19967 10.3876 2.19967 11.7499C2.19967 11.9213 2.21713 12.0885 2.25038 12.2499H1.9997C1.35537 12.2499 0.833041 11.7276 0.833035 11.0833L0.833008 3.74993C0.833008 3.10559 1.35534 2.58325 1.99967 2.58325H8.33301C8.97734 2.58325 9.49967 3.10559 9.49967 3.74992ZM5.83301 4.74992C5.83301 4.47378 5.60915 4.24992 5.33301 4.24992C5.05687 4.24992 4.83301 4.47378 4.83301 4.74992V5.58325H3.99967C3.72353 5.58325 3.49967 5.80711 3.49967 6.08325C3.49967 6.35939 3.72353 6.58325 3.99967 6.58325H4.83301V7.41659C4.83301 7.69272 5.05687 7.91659 5.33301 7.91659C5.60915 7.91659 5.83301 7.69272 5.83301 7.41659V6.58325H6.66634C6.94247 6.58325 7.16634 6.35939 7.16634 6.08325C7.16634 5.80711 6.94247 5.58325 6.66634 5.58325H5.83301V4.74992Z" fill="#EC4899"/>
</svg>
