<svg width="15" height="15" viewBox="0 0 15 15" fill="none" xmlns="http://www.w3.org/2000/svg">
<path d="M7.435 1.4917C11.4136 0.135377 13.4028 -0.542781 14.4728 0.527177C15.5427 1.59714 14.8646 3.58643 13.5083 7.565L12.5847 10.2743C11.5431 13.3298 11.0222 14.8576 10.1637 14.984C9.93291 15.018 9.694 14.9976 9.46558 14.9243C8.61625 14.6516 8.16725 13.0408 7.26925 9.81917C7.07008 9.10459 6.9705 8.74725 6.74366 8.47434C6.67783 8.39517 6.60483 8.32217 6.52566 8.25634C6.25275 8.0295 5.89541 7.92992 5.18087 7.73075C1.95926 6.83275 0.348447 6.38375 0.0757471 5.53439C0.00243041 5.30604 -0.0180278 5.06711 0.0159638 4.83629C0.142397 3.97777 1.67016 3.45695 4.72566 2.41532L7.435 1.4917Z" fill="#0EA5E9"/>
</svg>
