<svg width="16" height="16" viewBox="0 0 16 16" fill="none" xmlns="http://www.w3.org/2000/svg">
<path d="M8.58759 4.67763L11.7695 5.52542M7.90553 7.20885L9.49646 7.63272M7.98466 11.9775L8.62106 12.1471C10.421 12.6267 11.321 12.8665 12.03 12.4595C12.739 12.0524 12.9802 11.1575 13.4625 9.36765L14.1445 6.83645C14.6269 5.04662 14.868 4.15171 14.4587 3.44669C14.0493 2.74168 13.1493 2.50189 11.3493 2.02231L10.7129 1.85275C8.91299 1.37316 8.01299 1.13337 7.30399 1.54041C6.59497 1.94745 6.35381 2.84236 5.87151 4.63219L5.18943 7.16339C4.70713 8.95319 4.46598 9.84812 4.87533 10.5531C5.28467 11.2582 6.18467 11.498 7.98466 11.9775Z" stroke="#9CA3AF" stroke-width="1.2" stroke-linecap="round"/>
<path d="M7.99968 13.964L7.36481 14.1369C5.56903 14.6259 4.67116 14.8704 3.9638 14.4554C3.25646 14.0404 3.01587 13.1279 2.5347 11.303L1.85422 8.72211C1.37305 6.89717 1.13246 5.98469 1.54086 5.26585C1.89412 4.64403 2.66634 4.66667 3.66634 4.66659" stroke="#9CA3AF" stroke-width="1.2" stroke-linecap="round"/>
</svg>
