<svg width="16" height="16" viewBox="0 0 16 16" fill="none" xmlns="http://www.w3.org/2000/svg">
<path d="M11.9955 6.25564C11.9884 5.65163 11.9676 5.12954 11.9079 4.68526C11.9048 4.66252 11.9017 4.63989 11.8984 4.61735C12.2039 4.37717 12.4802 4.17477 12.7296 4.02414C13.1964 3.74209 13.7881 3.50591 14.3952 3.80687C14.993 4.10317 15.1782 4.71043 15.2552 5.25529C15.3327 5.80305 15.3327 6.54015 15.3326 7.42555V8.57641C15.3327 9.46181 15.3327 10.1989 15.2552 10.7466C15.1782 11.2915 14.993 11.8987 14.3952 12.1951C13.7881 12.496 13.1964 12.2598 12.7296 11.9778C12.4802 11.8271 12.2039 11.6247 11.8984 11.3846C11.9017 11.3621 11.9049 11.3395 11.9079 11.3169C11.9676 10.8725 11.9884 10.3504 11.9955 9.74628C12.634 10.2724 13.0749 10.6287 13.419 10.8365C13.5999 10.9458 13.7091 10.9853 13.7687 10.9971C13.7818 10.9997 13.7908 11.0005 13.7961 11.0009C13.7988 11.001 13.8018 11.0009 13.8018 11.0009L13.8031 11.0004C13.806 10.999 13.8072 10.9978 13.8072 10.9978C13.809 10.9958 13.819 10.985 13.8332 10.9573C13.8651 10.8949 13.9044 10.7761 13.935 10.5599C13.9977 10.117 13.9993 9.47575 13.9993 8.52221V7.47968C13.9993 6.52618 13.9977 5.88491 13.935 5.44204C13.9044 5.22578 13.8651 5.10704 13.8332 5.04469C13.819 5.01689 13.8093 5.00641 13.8074 5.00443C13.8074 5.00443 13.806 5.00293 13.8031 5.00149L13.8021 5.00101C13.8021 5.00101 13.7988 5.00095 13.7961 5.00108C13.7908 5.00135 13.7818 5.00223 13.7687 5.00483C13.7091 5.01663 13.5999 5.05609 13.419 5.16539C13.0749 5.37326 12.634 5.72953 11.9955 6.25564Z" fill="#FEC717"/>
<path fill-rule="evenodd" clip-rule="evenodd" d="M5.95231 2H6.71499C7.77406 1.99998 8.63626 1.99997 9.31613 2.09137C10.0255 2.18674 10.6355 2.39246 11.1217 2.87868C11.6079 3.36491 11.8136 3.97488 11.9089 4.6842C12.0004 5.36411 12.0003 6.22622 12.0003 7.28533V8.71467C12.0003 9.7738 12.0004 10.6359 11.9089 11.3158C11.8136 12.0251 11.6079 12.6351 11.1217 13.1213C10.6355 13.6075 10.0255 13.8133 9.31613 13.9086C8.63619 14.0001 7.77413 14 6.71499 14H5.95233C4.89321 14 4.0311 14.0001 3.35119 13.9086C2.64187 13.8133 2.0319 13.6075 1.54567 13.1213C1.05945 12.6351 0.853733 12.0251 0.758366 11.3158C0.666958 10.6359 0.666974 9.7738 0.666993 8.71473V7.28527C0.666974 6.22619 0.666958 5.36409 0.758366 4.6842C0.853733 3.97488 1.05945 3.36491 1.54567 2.87868C2.0319 2.39246 2.64187 2.18674 3.35119 2.09137C4.03109 1.99997 4.89321 1.99998 5.95231 2ZM7.33366 4.66667C6.96546 4.66667 6.66699 4.96515 6.66699 5.33333C6.66699 5.70153 6.96546 6 7.33366 6H8.66699C9.03519 6 9.33366 5.70153 9.33366 5.33333C9.33366 4.96515 9.03519 4.66667 8.66699 4.66667H7.33366Z" fill="#FEC717"/>
</svg>
