<svg width="16" height="16" viewBox="0 0 16 16" fill="none" xmlns="http://www.w3.org/2000/svg">
<path d="M7.33301 5.33325H8.66634" stroke="#9CA3AF" stroke-width="1.2" stroke-linecap="round"/>
<path d="M1.33301 7.33341C1.33301 5.13353 1.33301 4.03358 2.01643 3.35017C2.69984 2.66675 3.79979 2.66675 5.99967 2.66675H6.66634C8.86621 2.66675 9.96614 2.66675 10.6496 3.35017C11.333 4.03358 11.333 5.13353 11.333 7.33341V8.66675C11.333 10.8666 11.333 11.9665 10.6496 12.65C9.96614 13.3334 8.86621 13.3334 6.66634 13.3334H5.99967C3.79979 13.3334 2.69984 13.3334 2.01643 12.65C1.33301 11.9665 1.33301 10.8666 1.33301 8.66675V7.33341Z" stroke="#9CA3AF" stroke-width="1.2" stroke-linecap="round"/>
<path d="M11.333 5.93715L11.4169 5.86789C12.8275 4.70407 13.5327 4.12216 14.0995 4.40313C14.6663 4.68411 14.6663 5.61562 14.6663 7.47865V8.52119C14.6663 10.3843 14.6663 11.3157 14.0995 11.5967C13.5327 11.8777 12.8275 11.2958 11.4169 10.1319L11.333 10.0627" stroke="#9CA3AF" stroke-width="1.2" stroke-linecap="round"/>
</svg>
